<?xml version="1.0" encoding="UTF-8"?>
<svg version="1.1" xmlns="http://www.w3.org/2000/svg" width="125" height="131">
    <path d="M0 0 C41.25 0 82.5 0 125 0 C125 43.23 125 86.46 125 131 C83.75 131 42.5 131 0 131 C0 87.77 0 44.54 0 0 Z " fill="#201F1F" transform="translate(0,0)"/>
    <path d="M0 0 C3.71756874 2.97897892 7.13036888 6.17145922 10.50537109 9.52880859 C11.98364796 10.98390438 13.49441624 12.3950101 15.01953125 13.80078125 C15.94121094 14.67089844 16.86289063 15.54101562 17.8125 16.4375 C18.64394531 17.21996094 19.47539063 18.00242187 20.33203125 18.80859375 C22 21 22 21 21.890625 23.17578125 C20.72766564 25.55780766 19.20083309 26.58010769 17 28 C15.68 26.68 14.36 25.36 13 24 C9.78956118 25.38188453 7.95063635 26.92421903 5.75 29.625 C5.22921875 30.25664063 4.7084375 30.88828125 4.171875 31.5390625 C3.78515625 32.02117187 3.3984375 32.50328125 3 33 C5.38330605 35.47074625 7.78367947 37.92422111 10.1875 40.375 C10.86103516 41.07367188 11.53457031 41.77234375 12.22851562 42.4921875 C13.21948242 43.49765625 13.21948242 43.49765625 14.23046875 44.5234375 C15.13381958 45.450354 15.13381958 45.450354 16.05541992 46.39599609 C21.20568194 50.64423482 26.66584191 50.35358139 33 50 C35.00857103 49.72295572 37.01590468 49.41770428 39 49 C40.32 50.65 41.64 52.3 43 54 C38.32633684 57.73893053 34.09339781 58.48122346 28.1875 58.625 C26.22876953 58.67527344 26.22876953 58.67527344 24.23046875 58.7265625 C13.92119776 57.66651454 6.26744841 48.9307485 -0.63598633 41.94042969 C-2.20786005 40.35445734 -3.80272049 38.79431256 -5.40039062 37.234375 C-6.40770158 36.22801335 -7.41361637 35.22025182 -8.41796875 34.2109375 C-9.32313232 33.30649902 -10.2282959 32.40206055 -11.16088867 31.47021484 C-13 29 -13 29 -12.91137695 26.79931641 C-12 25 -12 25 -10 23 C-6.89685751 23.41375233 -4.87748882 24.56125559 -2 26 C0.64 23.36 3.28 20.72 6 18 C-0.60801144 9.47415575 -0.60801144 9.47415575 -10 5 C-14.56661922 4.74378704 -18.94748632 4.78949726 -23.4375 5.6875 C-26 6 -26 6 -27.875 4.5625 C-28.431875 3.7890625 -28.431875 3.7890625 -29 3 C-28.5 1.1875 -28.5 1.1875 -27 -1 C-17.75270353 -5.5425316 -8.9277115 -5.29388456 0 0 Z " fill="#E96E20" transform="translate(52,37)"/>
    <path d="M0 0 C4.324855 2.20322802 7.60172751 4.75690252 10 9 C10.69896395 13.68855591 10.36728594 17.78336534 9 22.3125 C5.46319206 27.06508567 1.3247051 29.58487409 -4.5 30.625 C-10.34777674 29.58075415 -14.49987589 27.06267066 -18 22.25 C-19.73843114 16.6000988 -20.01010848 12.05906728 -17.375 6.6875 C-12.24760722 0.88545027 -7.65218539 -1.36008322 0 0 Z " fill="#2857A5" transform="translate(69,8)"/>
    <path d="M0 0 C2.46800047 1.15173355 4.04783565 2.04783565 6 4 C5.6484375 5.734375 5.6484375 5.734375 5 8 C4.80757496 10.07819041 4.68926345 12.16390964 4.625 14.25 C4.57601563 15.32765625 4.52703125 16.4053125 4.4765625 17.515625 C5.85282554 26.67701777 13.58768423 32.98740629 19.89453125 39.1875 C20.8521139 40.13947509 21.80902725 41.09212384 22.76530457 42.04541016 C25.26242206 44.53117016 27.76841943 47.00778053 30.27648926 49.48248291 C32.84283366 52.01792839 35.40051903 54.56207726 37.95898438 57.10546875 C42.96429837 62.07877954 47.97906196 67.04245922 53 72 C51.63016497 75.16115776 51.0109362 75.9927092 48 78 C41.79273377 71.93232604 35.60223833 65.84815843 29.43198013 59.74285316 C26.56573279 56.90779475 23.69423122 54.07853731 20.80957031 51.26220703 C18.0210539 48.53932841 15.24785536 45.80165472 12.4842453 43.05350876 C11.43224585 42.01251637 10.37501645 40.97677955 9.31232452 39.94670486 C2.22018576 33.06353439 -2.80737591 26.88389641 -4.53125 16.93359375 C-4.45039291 10.47513335 -3.12970165 5.65861235 0 0 Z " fill="#ED6F20" transform="translate(16,44)"/>
    <path d="M0 0 C5.72963229 5.99612682 8.00698769 10.83992504 8.3125 19.25 C7.87478719 30.48462871 3.49518811 36.63820355 -4.51953125 44.1953125 C-5.11121094 44.72898438 -5.70289062 45.26265625 -6.3125 45.8125 C-8.93437494 44.76375002 -10.10621361 44.16318687 -11.5625 41.6875 C-11.81 41.06875 -12.0575 40.45 -12.3125 39.8125 C-11.69761719 39.22082031 -11.08273438 38.62914062 -10.44921875 38.01953125 C-9.64097656 37.22933594 -8.83273438 36.43914062 -8 35.625 C-7.19949219 34.84769531 -6.39898437 34.07039063 -5.57421875 33.26953125 C-0.56724251 27.83017364 0.2350946 23.95350437 0.0390625 16.69140625 C-0.59822285 11.47274731 -3.10281367 8.90416815 -6.875 5.5 C-11.96322512 1.97738261 -17.34523724 2.44698391 -23.3125 2.8125 C-26.82079714 3.66965849 -26.82079714 3.66965849 -29.3125 4.8125 C-30.68812854 3.52284824 -32.02016393 2.18560707 -33.3125 0.8125 C-33.3125 0.1525 -33.3125 -0.5075 -33.3125 -1.1875 C-21.65326112 -8.27448834 -11.37474058 -7.51162114 0 0 Z " fill="#EA6E20" transform="translate(108.3125,39.1875)"/>
</svg>
