<?xml version="1.0" encoding="utf-8"?>
<!-- Generator: Adobe Illustrator 16.0.0, SVG Export Plug-In . SVG Version: 6.00 Build 0)  -->
<!DOCTYPE svg PUBLIC "-//W3C//DTD SVG 1.1//EN" "http://www.w3.org/Graphics/SVG/1.1/DTD/svg11.dtd">
<svg version="1.1" id="Layer_1" xmlns="http://www.w3.org/2000/svg" xmlns:xlink="http://www.w3.org/1999/xlink" x="0px" y="0px"
     width="159.259px" height="36.478px" viewBox="0 0 159.259 36.478" enable-background="new 0 0 159.259 36.478"
     xml:space="preserve">
<g>
	<circle fill="#2959A8" cx="16.82" cy="4.747" r="4.746"/>
    <path fill="#F37221" d="M20.03,9.934l1.705,1.705c2.297-1.725,5.569-1.564,7.658,0.524c2.29,2.289,2.29,6.013,0,8.302l-2.686,2.687
		l1.675,1.674l2.685-2.685c3.212-3.212,3.212-8.44,0.001-11.653C28.052,7.474,23.262,7.289,20.03,9.934z"/>
    <path fill="#F37221" d="M1.634,11.406c-2.408,3.223-2.157,7.819,0.77,10.746l14.326,14.326l1.675-1.675L4.079,20.477
		c-2.002-2.001-2.253-5.103-0.753-7.38L1.634,11.406z"/>
    <path fill="#F37221" d="M24.933,24.727c-2.271,1.459-5.335,1.202-7.32-0.785l-4.151-4.15l3.268-3.268l1.675,1.675l1.675-1.675
		L14.055,10.5C11.127,7.573,6.532,7.323,3.309,9.73L5,11.422c2.278-1.501,5.377-1.25,7.38,0.752l2.674,2.675l-3.267,3.267
		l-1.676-1.676l-1.673,1.675l7.5,7.501c2.911,2.913,7.472,3.175,10.693,0.809L24.933,24.727z"/>
</g>
    <g>
	<g>
		<path fill="#2959A8" d="M39.504,12.644c-1.132,0-2.008-0.876-2.008-1.923c0-1.025,0.875-1.922,2.008-1.922
			c1.111,0,2.008,0.854,2.008,1.922C41.512,11.811,40.615,12.644,39.504,12.644z M37.752,24.756V14.117h3.504v10.639H37.752z"/>
        <path fill="#2959A8" d="M53.775,24.756v-6.323h-5.896v6.323h-3.653V9.631h3.653v5.725h5.896V9.631h3.653v15.125H53.775z"/>
        <path fill="#2959A8" d="M70.891,20.398h-7.712c0.107,1.175,1.282,2.008,2.542,2.008c1.111,0,1.88-0.47,2.35-1.111l2.435,1.538
			c-1.004,1.453-2.67,2.265-4.828,2.265c-3.205,0-5.854-2.029-5.854-5.618c0-3.482,2.521-5.704,5.747-5.704
			c3.14,0,5.34,2.158,5.34,5.79C70.912,19.843,70.912,20.142,70.891,20.398z M67.687,18.219c0-1.11-0.705-2.029-2.093-2.029
			c-1.346,0-2.329,0.94-2.414,2.029H67.687z"/>
        <path fill="#2959A8" d="M72.817,15.57c1.239-1.175,3.012-1.795,4.742-1.795c3.567,0,4.892,1.752,4.892,5.619v5.362h-3.205v-1.132
			h-0.064c-0.534,0.876-1.751,1.389-3.012,1.389c-1.688,0-3.866-0.833-3.866-3.333c0-3.076,3.738-3.589,6.836-3.589V17.92
			c0-1.047-0.833-1.538-1.923-1.538c-1.004,0-1.986,0.491-2.627,1.089L72.817,15.57z M79.247,20.12h-0.448
			c-1.538,0-3.269,0.192-3.269,1.453c0,0.812,0.812,1.089,1.517,1.089c1.41,0,2.2-0.854,2.2-2.179V20.12z"/>
        <path fill="#2959A8" d="M85.104,24.756V8.606h3.546v16.15H85.104z"/>
        <path fill="#2959A8" d="M95.231,16.745v4.059c0,0.983,0.32,1.496,1.324,1.496c0.342,0,0.77-0.064,1.025-0.171l0.043,2.563
			c-0.471,0.171-1.282,0.32-2.029,0.32c-2.842,0-3.781-1.517-3.781-3.781v-4.486h-1.709v-2.628h1.688v-2.798h3.439v2.798h2.499
			v2.628H95.231z"/>
        <path fill="#2959A8" d="M106.385,24.756v-5.768c0-1.196-0.299-2.243-1.56-2.243c-1.218,0-1.901,1.004-1.901,2.264v5.747h-3.503
			V8.606h3.503v6.857h0.043c0.47-0.854,1.581-1.645,3.055-1.645c2.884,0,3.888,2.222,3.888,4.358v6.58H106.385z"/>
        <path fill="#2959A8" d="M120.188,25.162c-4.656,0-8.139-3.247-8.139-7.989c0-4.849,3.589-7.947,8.203-7.947
			c2.115,0,4.4,0.769,5.661,2.222l-2.479,2.478c-0.684-0.94-1.9-1.389-3.055-1.389c-2.542,0-4.357,1.965-4.357,4.636
			c0,2.755,1.772,4.635,4.294,4.635c1.431,0,2.563-0.641,3.204-1.538l2.542,2.393C124.738,24.2,122.729,25.162,120.188,25.162z"/>
        <path fill="#2959A8" d="M134.44,24.756v-1.474h-0.043c-0.491,0.94-1.709,1.773-3.204,1.773c-2.862,0-3.866-2.222-3.866-4.357
			v-6.58h3.524v5.768c0,1.196,0.299,2.264,1.581,2.264c1.218,0,1.88-1.068,1.88-2.286v-5.747h3.503v10.639H134.44z"/>
        <path fill="#2959A8" d="M147.454,16.98c-0.32-0.085-0.62-0.107-0.897-0.107c-1.88,0-2.499,1.538-2.499,2.414v5.469h-3.504V14.117
			h3.375v1.538h0.043c0.534-1.068,1.581-1.837,2.884-1.837c0.278,0,0.577,0.021,0.748,0.085L147.454,16.98z"/>
        <path fill="#2959A8" d="M159.162,20.398h-7.712c0.107,1.175,1.282,2.008,2.543,2.008c1.11,0,1.88-0.47,2.35-1.111l2.436,1.538
			c-1.004,1.453-2.671,2.265-4.828,2.265c-3.204,0-5.854-2.029-5.854-5.618c0-3.482,2.521-5.704,5.746-5.704
			c3.141,0,5.341,2.158,5.341,5.79C159.184,19.843,159.184,20.142,159.162,20.398z M155.958,18.219c0-1.11-0.705-2.029-2.094-2.029
			c-1.346,0-2.328,0.94-2.414,2.029H155.958z"/>
	</g>
</g>
</svg>
